<?xml version="1.0" encoding="UTF-8" standalone="no"?>
<!-- Created with Inkscape (http://www.inkscape.org/) -->

<svg
   width="64"
   height="64"
   viewBox="0 0 64 64"
   version="1.1"
   id="svg1"
   xmlns="http://www.w3.org/2000/svg"
   xmlns:svg="http://www.w3.org/2000/svg">
  <defs
     id="defs1" />
  <g
     id="layer1"
     transform="translate(-755.50098,-344.30432)">
    <g
       id="g36"
       transform="matrix(0.13202779,0,0,0.12761078,671.19372,335.19562)">
      <path
         style="fill:none;stroke:#333333;stroke-width:13;stroke-linecap:round;stroke-linejoin:miter;stroke-dasharray:none;stroke-opacity:1"
         d="m 716.83436,566.4037 c -0.61264,-50.99878 23.91102,-73.82976 73.57098,-68.49295"
         id="path50" />
      <path
         style="fill:none;stroke:#333333;stroke-width:13;stroke-linecap:round;stroke-linejoin:miter;stroke-dasharray:none;stroke-opacity:1"
         d="m 1042.2431,566.4037 c 0.6127,-50.99878 -23.911,-73.82976 -73.57092,-68.49295"
         id="path51" />
      <path
         style="fill:#da5f56;fill-opacity:1;stroke:none;stroke-width:24;stroke-linecap:round;stroke-dasharray:none;stroke-opacity:1;paint-order:stroke markers fill"
         id="path22"
         d="m 826.69776,725.88096 c -20.53026,14.24861 -39.32601,3.03083 -63.2545,10.23787 -23.9285,7.20703 -33.40237,26.93935 -58.38682,26.39934 -24.98445,-0.54002 -33.59689,-20.66325 -57.19164,-28.89746 -23.59475,-8.2342 -42.85764,2.16098 -62.75307,-12.96139 -19.89543,-15.12237 -15.03489,-36.46468 -29.28351,-56.99493 -14.24861,-20.53026 -35.94274,-23.44282 -43.14978,-47.37132 -7.20704,-23.9285 9.26991,-38.33783 9.80992,-63.32228 0.54002,-24.98445 -15.29894,-40.09226 -7.06474,-63.68701 8.2342,-23.59475 30.03392,-25.56724 45.1563,-45.46268 15.12237,-19.89543 11.18853,-41.42781 31.71878,-55.67642 20.53026,-14.24861 39.32601,-3.03083 63.2545,-10.23787 23.9285,-7.20704 33.40237,-26.93935 58.38682,-26.39934 24.98445,0.54001 33.59689,20.66325 57.19164,28.89745 23.59475,8.23421 42.85764,-2.16097 62.75307,12.9614 19.89543,15.12237 15.03489,36.46467 29.28351,56.99493 14.24861,20.53025 35.94274,23.44282 43.14978,47.37132 7.20704,23.92849 -9.26991,38.33783 -9.80992,63.32228 -0.54002,24.98445 15.29894,40.09226 7.06474,63.68701 -8.2342,23.59475 -30.03393,25.56724 -45.1563,45.46267 -15.12237,19.89543 -11.18853,41.42781 -31.71878,55.67643 z"
         transform="matrix(1.2201593,0,0,1.2201593,15.229138,-357.50319)" />
      <g
         id="g35"
         transform="translate(-6.3886484)">
        <g
           id="g32">
          <g
             id="g30"
             transform="matrix(1.464053,0,0,1.464053,-408.95556,-69.304924)">
            <circle
               style="fill:#ffffff;fill-opacity:1;stroke:none;stroke-width:1.21208;stroke-linecap:round;stroke-dasharray:none;stroke-opacity:1;paint-order:stroke markers fill"
               id="path23"
               cx="847.66455"
               cy="182.95158"
               r="33.604576" />
            <path
               id="circle27"
               style="fill:#333333;fill-opacity:1;stroke:none;stroke-width:0.750344;stroke-linecap:round;stroke-dasharray:none;stroke-opacity:1;paint-order:stroke markers fill"
               d="m 856.06055,162.14787 a 20.803062,20.803062 0 0 0 -8.39258,1.79687 7.5479045,7.5479045 0 0 1 2.68359,5.75196 7.5479045,7.5479045 0 0 1 -7.54687,7.54687 7.5479045,7.5479045 0 0 1 -5.75196,-2.68359 20.803062,20.803062 0 0 0 -1.79687,8.39062 20.803062,20.803062 0 0 0 20.80469,20.80469 20.803062,20.803062 0 0 0 20.80273,-20.80469 20.803062,20.803062 0 0 0 -20.80273,-20.80273 z" />
          </g>
          <path
             style="fill:none;stroke:#333333;stroke-width:13.4947;stroke-linecap:round;stroke-linejoin:round;stroke-dasharray:none;stroke-opacity:1;paint-order:stroke fill markers"
             d="m 810.13377,120.06983 c 34.60427,40.86321 64.38801,33.9694 64.38801,33.9694"
             id="path30" />
        </g>
        <g
           id="g34"
           transform="matrix(-1,0,0,1,1774.6373,0)">
          <g
             id="g33"
             transform="matrix(1.464053,0,0,1.464053,-408.95556,-69.304924)">
            <circle
               style="fill:#ffffff;fill-opacity:1;stroke:none;stroke-width:1.21208;stroke-linecap:round;stroke-dasharray:none;stroke-opacity:1;paint-order:stroke markers fill"
               id="circle32"
               cx="847.66455"
               cy="182.95158"
               r="33.604576" />
            <path
               id="path32"
               style="fill:#333333;fill-opacity:1;stroke:none;stroke-width:0.750344;stroke-linecap:round;stroke-dasharray:none;stroke-opacity:1;paint-order:stroke markers fill"
               d="m 856.05859,162.14787 a 20.803062,20.803062 0 0 1 8.39258,1.79687 7.5479045,7.5479045 0 0 0 -2.68359,5.75196 7.5479045,7.5479045 0 0 0 7.54687,7.54687 7.5479045,7.5479045 0 0 0 5.75196,-2.68359 20.803062,20.803062 0 0 1 1.79687,8.39062 20.803062,20.803062 0 0 1 -20.80469,20.80469 20.803062,20.803062 0 0 1 -20.80273,-20.80469 20.803062,20.803062 0 0 1 20.80273,-20.80273 z" />
          </g>
          <path
             style="fill:none;stroke:#333333;stroke-width:13.4947;stroke-linecap:round;stroke-linejoin:round;stroke-dasharray:none;stroke-opacity:1;paint-order:stroke fill markers"
             d="m 810.13377,120.06983 c 34.60427,40.86321 64.38801,33.9694 64.38801,33.9694"
             id="path33" />
        </g>
      </g>
      <path
         style="fill:none;stroke:#333333;stroke-width:13;stroke-linecap:round;stroke-linejoin:miter;stroke-dasharray:none;stroke-opacity:1"
         d="m 830.67913,290.78532 c 34.98576,-37.11128 68.48634,-36.49919 100.50175,1.83626"
         id="path34" />
      <g
         id="g49"
         transform="translate(8.4967816)">
        <path
           style="fill:none;stroke:#333333;stroke-width:13;stroke-linecap:round;stroke-linejoin:miter;stroke-dasharray:none;stroke-opacity:1"
           d="m 896.88237,368.33608 c -20.85287,46.54469 -52.69531,56.97169 -95.52734,31.28102"
           id="path48" />
        <path
           style="fill:none;stroke:#333333;stroke-width:13;stroke-linecap:round;stroke-linejoin:miter;stroke-dasharray:none;stroke-opacity:1"
           d="m 847.98407,368.32334 c 20.85287,46.54469 52.69531,56.97169 95.52734,31.28102"
           id="path49" />
      </g>
    </g>
  </g>
</svg>
