<?xml version="1.0" encoding="UTF-8" standalone="no"?>
<!-- Created with Inkscape (http://www.inkscape.org/) -->

<svg
   width="16.933365mm"
   height="16.933167mm"
   viewBox="0 0 16.933365 16.933167"
   version="1.1"
   id="svg1"
   xml:space="preserve"
   xmlns="http://www.w3.org/2000/svg"
   xmlns:svg="http://www.w3.org/2000/svg"><defs
     id="defs1" /><g
     id="g12"
     transform="matrix(0.20287113,0,0,0.19219751,-46.069551,-30.296017)"><g
       id="layer2"
       transform="translate(36.394369,11.272454)"><path
         id="path14"
         style="fill:#f65757;fill-opacity:1;stroke:#333333;stroke-width:3.175;stroke-linecap:round;stroke-linejoin:round;stroke-dasharray:none;stroke-opacity:1;paint-order:stroke fill markers"
         d="m 218.28325,150.89595 a 19.41572,10.786511 80.019091 0 0 -1.41542,0.0806 19.41572,10.786511 80.019091 0 0 -7.67085,12.56409 17.238497,9.5769434 46.293791 0 0 -9.0196,0.81803 17.238497,9.5769434 46.293791 0 0 1.26917,14.31851 14.282619,7.9347887 8.8576414 0 0 -9.11107,5.82083 14.282619,7.9347887 8.8576414 0 0 12.89068,10.0397 14.282619,7.9347887 8.8576414 0 0 4.27881,0.29869 31.190199,31.190199 0 0 0 -1.57509,9.78648 31.190199,31.190199 0 0 0 31.19034,31.19035 31.190199,31.190199 0 0 0 19.88096,-7.15771 5.9859058,10.738165 86.979424 0 0 2.32337,0.12299 5.9859058,10.738165 86.979424 0 0 11.23807,-6.10091 5.9859058,10.738165 86.979424 0 0 -5.02915,-5.18987 31.190199,31.190199 0 0 0 2.77709,-12.86485 31.190199,31.190199 0 0 0 -31.19034,-31.19034 31.190199,31.190199 0 0 0 -7.74526,0.9772 19.41572,10.786511 80.019091 0 0 -0.51884,-6.18102 19.41572,10.786511 80.019091 0 0 -12.57287,-17.33279 z"
         transform="translate(0,-2.94064)" /></g><path
       id="circle6"
       style="fill:#f65757;fill-opacity:1;stroke:none;stroke-width:1.71866;stroke-linecap:round;stroke-linejoin:round;paint-order:stroke fill markers"
       d="m 254.67644,159.22775 a 19.41572,10.786511 80.019091 0 0 -1.41541,0.0806 19.41572,10.786511 80.019091 0 0 -7.67085,12.56409 17.238497,9.5769434 46.293791 0 0 -9.01961,0.81804 17.238497,9.5769434 46.293791 0 0 1.26917,14.3185 14.282619,7.9347887 8.8576414 0 0 -9.11107,5.82083 14.282619,7.9347887 8.8576414 0 0 12.89069,10.0397 14.282619,7.9347887 8.8576414 0 0 14.48594,-3.61425 17.238497,9.5769434 46.293791 0 0 4.28759,-1.64124 17.238497,9.5769434 46.293791 0 0 0.19792,-0.19948 19.41572,10.786511 80.019091 0 0 6.65852,-20.85401 19.41572,10.786511 80.019091 0 0 -12.57289,-17.33279 z" /><circle
       style="fill:#f9f6ea;fill-opacity:1;stroke:none;stroke-width:3.70417;stroke-linecap:round;stroke-linejoin:round;paint-order:stroke fill markers"
       id="path5"
       cx="275.5134"
       cy="212.95465"
       r="31.190199" /><ellipse
       style="opacity:0.582378;fill:#000000;fill-opacity:1;stroke:none;stroke-width:0.700066;stroke-linecap:round;stroke-linejoin:round;paint-order:stroke fill markers"
       id="circle5"
       cx="269.7952"
       cy="223.89505"
       rx="4.6785307"
       ry="7.4271674" /><ellipse
       style="fill:#ffa209;fill-opacity:1;stroke:none;stroke-width:0.954342;stroke-linecap:round;stroke-linejoin:round;paint-order:stroke fill markers"
       id="ellipse12"
       cx="234.88849"
       cy="-318.63138"
       rx="6.0262423"
       ry="10.71558"
       transform="matrix(-0.0867549,0.99622969,-0.9999587,0.00908837,0,0)" /></g></svg>
